<svg width="1331" height="206" viewBox="0 0 1331 206" fill="none" xmlns="http://www.w3.org/2000/svg">
<path d="M274.792 138.989L253.193 61.2287L232.313 138.989H274.792ZM216.115 0.749512H290.276L355.073 205.234H292.073L288.115 188.671H218.99L214.672 205.234H151.312L216.115 0.749512ZM486.115 102.989C486.115 80.312 467.036 61.2287 444.354 61.2287C421.313 61.2287 402.234 80.312 402.234 102.989C402.234 126.39 421.313 145.473 444.354 145.473C467.036 145.473 486.115 126.39 486.115 102.989ZM341.755 102.63C341.755 46.4683 388.193 0.749512 444.354 0.749512C500.156 0.749512 546.594 46.4683 546.594 102.63C546.594 159.51 500.156 205.234 444.354 205.234C388.193 205.234 341.755 159.51 341.755 102.63Z" fill="#E3366D"/>
<path d="M140.817 0.749512L136.494 17.3068L123.176 66.9891L102.296 144.75L80.6973 66.9891C79.7702 66.9891 67.3744 17.3068 67.3744 17.3068L63.416 0.749512H0.416016L65.2129 205.234H139.374L204.176 0.749512H140.817Z" fill="#18B5D9"/>
<path d="M674.833 74.9787C674.833 63.4683 665.115 54.1141 653.24 54.1141H617.26V96.5672H653.24C665.115 96.5672 674.833 86.8537 674.833 74.9787ZM556.812 0.858887H665.115C703.255 0.858887 735.281 31.4422 735.281 74.2599C735.281 116.359 703.255 148.02 665.115 148.02H617.26V205.234H556.812V0.858887ZM746.797 0.858887H886.401V50.5151H807.245V81.8172H868.411V124.276H807.245V155.578H886.401V205.234H746.797V0.858887Z" fill="#E3366D"/>
<path d="M918.271 164.526C929.479 164.526 938.396 173.677 938.396 185.109C938.396 196.312 929.479 205.234 918.271 205.234C906.839 205.234 897.922 196.312 897.922 185.109C897.922 173.677 906.839 164.526 918.271 164.526ZM934.052 140.057C934.052 104.385 963.552 75.338 999.229 75.338C1012.95 75.338 1022.09 78.5411 1030.56 82.8849V119.02C1023.7 114.447 1014.32 111.473 1004.26 111.473C987.109 111.473 972.469 123.364 972.469 140.286C972.469 157.666 987.109 169.557 1004.26 169.557C1015.01 169.557 1024.15 165.901 1030.56 161.552V197.687C1022.09 202.031 1012.95 205.234 999.229 205.234C963.552 205.234 934.052 176.192 934.052 140.057ZM1129.58 140.286C1129.58 125.88 1117.46 113.76 1103.05 113.76C1088.41 113.76 1076.29 125.88 1076.29 140.286C1076.29 155.151 1088.41 167.27 1103.05 167.27C1117.46 167.27 1129.58 155.151 1129.58 140.286ZM1037.88 140.057C1037.88 104.385 1067.38 75.3432 1103.05 75.3432C1138.49 75.3432 1167.99 104.385 1167.99 140.057C1167.99 176.187 1138.49 205.234 1103.05 205.234C1067.38 205.234 1037.88 176.187 1037.88 140.057ZM1175.31 75.3432H1232.03L1252.38 149.661L1271.82 75.3432H1330.82V205.234H1294.69C1294.69 129.312 1296.97 116.046 1294.69 114.906C1290.8 114.906 1290.11 126.338 1268.16 205.234H1237.97C1216.02 126.338 1215.33 115.13 1211.45 114.906C1209.39 116.046 1211.45 129.312 1211.45 205.234H1175.31V75.3432Z" fill="#F2A413"/>
</svg>
